<svg id="Layer_1" data-name="Layer 1" xmlns="http://www.w3.org/2000/svg" viewBox="0 0 1080 1080"><title>WRI Logo</title><path d="M313.8,561.55V453.67a45.74,45.74,0,0,1,3.43-17.93,41.41,41.41,0,0,1,17.46-19.92c7.59-4.53,15.3-8.84,23-13.26l34.46-19.85,45.22-26.08L480,332.08q17.22-9.94,34.42-19.93c3.33-1.93,6.66-3.91,10-5.73,14.05-7.5,28.19-7.56,42.07.28,20.33,11.5,40.57,23.23,60.83,34.9q33.36,19.23,66.66,38.49,19.63,11.34,39.24,22.72c7.39,4.28,14.85,8.5,22.21,12.85,12.08,7.15,18.92,17.79,20.9,31.65a59.35,59.35,0,0,1,.58,8.53q0,105.95,0,211.9a48.69,48.69,0,0,1-4.5,21.13,40.44,40.44,0,0,1-16.45,18c-10.82,6.35-21.75,12.51-32.61,18.79-11.6,6.7-23.17,13.46-34.78,20.16-11.23,6.48-22.5,12.91-33.74,19.38Q630.92,779,607,792.8c-13.35,7.7-26.66,15.46-40,23.11a41.14,41.14,0,0,1-12.63,5.1c-8.62,1.7-17,1.28-25.14-2.21-5.53-2.38-10.59-5.61-15.78-8.58-15.09-8.64-30.11-17.41-45.17-26.11q-23.89-13.79-47.81-27.54l-45.22-26.05c-13.33-7.7-26.71-15.32-40-23.13-10.72-6.31-17.71-15.52-20.36-27.77a52.49,52.49,0,0,1-1.11-11Q313.83,615.06,313.8,561.55Z" fill="#f6b21a"/><path d="M545.3,860.15c4.54-2.59,9-5.13,13.44-7.7l53-30.56,67.8-39.12q23.15-13.37,46.32-26.71,20.74-12,41.47-24,12.78-7.4,25.58-14.72c1-.57,2-1.11,3-1.61a10,10,0,0,1,12.4,3.79,10.1,10.1,0,0,1-1.82,13.2,36.71,36.71,0,0,1-5,3.22c-10.26,5.91-20.53,11.77-30.78,17.69q-29.83,17.21-59.62,34.45l-48.14,27.81L623.3,838.84c-10.38,6-20.79,11.9-31.17,17.88q-20,11.52-40,23.11a13.79,13.79,0,0,1-5.08,2.13,11.91,11.91,0,0,1-7.81-1.56c-5-3-10.15-5.81-15.21-8.74-5.92-3.42-11.83-6.87-17.75-10.3l-34.06-19.69q-18.15-10.45-36.33-20.89l-66.33-38.25L324,756.22q-18.89-10.9-37.76-21.84c-4.7-2.72-6.6-7-5.35-11.89a10.07,10.07,0,0,1,13.49-6.77,71.54,71.54,0,0,1,7.16,3.85q18.56,10.63,37.07,21.33l44.82,25.87q22.41,12.94,44.84,25.86c16,9.28,32.05,18.63,48.09,27.91,13.46,7.77,27,15.48,40.43,23.24,8.4,4.84,16.77,9.73,25.16,14.59C543,859,544.18,859.56,545.3,860.15Z" fill="#f6b21a"/><path d="M824.38,553.26v143c0,1.57.06,3.15,0,4.71a10,10,0,0,1-10,9.24,9.89,9.89,0,0,1-10-9.21c-.09-1.57,0-3.14,0-4.71V418c0-7.06.86-5.26-4.81-8.56q-29.2-17-58.47-33.85-27.78-16-55.6-32c-11.24-6.48-22.44-13-33.67-19.5-12-6.91-24-13.74-36-20.65q-28.58-16.49-57.06-33c-1.48-.85-3-1.63-4.44-2.55A10.2,10.2,0,0,1,553,251.71c3.27-3,7.56-3.84,12.23-1.16l21.87,12.57c6.43,3.7,12.82,7.46,19.23,11.18q18,10.38,35.92,20.74Q660,305.3,677.82,315.52c10.74,6.2,21.46,12.44,32.21,18.63,11.73,6.76,23.5,13.47,35.23,20.24q19.82,11.43,39.6,22.92,15.52,9,31.11,18c1.23.71,2.5,1.37,3.7,2.15a9.58,9.58,0,0,1,4.72,8.58c0,1.43,0,2.86,0,4.28Z" fill="#f6b21a"/><path d="M266.11,552.75V410.22c0-1.42.05-2.85,0-4.28-.15-4,1.91-6.76,5.12-8.76,2.42-1.51,4.92-2.9,7.4-4.32l40-23.06,45.58-26.24q22-12.71,44.06-25.47,23.7-13.68,47.43-27.29,17.42-10,34.78-20.15,16.83-9.73,33.71-19.42c1.11-.63,2.29-1.14,3.44-1.69,4.69-2.26,12.61,1.74,13.07,8.52.33,4.77-1.55,8.21-5.74,10.58-10.91,6.18-21.77,12.45-32.62,18.71-10.25,5.92-20.46,11.89-30.69,17.8q-20.18,11.66-40.38,23.26l-43.35,25Q361.45,368.66,335,384,316.5,394.69,298,405.33c-3.21,1.85-6.37,3.79-9.61,5.59a3.62,3.62,0,0,0-2.07,3.83c.1,1.14,0,2.28,0,3.42V696c0,1.58.06,3.15,0,4.71-.28,4.71-3.32,8.14-8.1,9.21a10.22,10.22,0,0,1-10.91-5,8.5,8.5,0,0,1-1.08-4.09c0-1.42,0-2.85,0-4.28Z" fill="#f6b21a"/><path d="M545.23,715.43H456.17a37.71,37.71,0,0,1-15-2.85c-9.94-4.27-16.27-11.71-19.41-22-1.11-3.59-1.19-7.29-1.27-11a11.43,11.43,0,0,1,2-6.84c3.63-5.46,7.16-11,10.72-16.5L464.85,607q14-21.74,28-43.45c2.7-4.19,5.32-8.44,8.05-12.61a7,7,0,0,0,1.36-4.39c-.07-1,0-2,0-3V422.84a18.23,18.23,0,0,1,0-2.56c.26-2.1-.59-3.3-2.44-4.41a18.47,18.47,0,0,1-9.2-15,18.76,18.76,0,0,1,17.8-19.71c.71-.05,1.42,0,2.13,0H580a19.64,19.64,0,0,1,14.34,5.55c4.8,4.69,6.19,10.38,5.14,16.83-.83,5.09-3.74,8.84-7.82,11.79a8.29,8.29,0,0,1-1.8,1.14c-1.63.64-2,1.87-1.88,3.43,0,.71,0,1.42,0,2.14q0,61.2,0,122.4a13.16,13.16,0,0,0,2.22,7.57c13.72,21.17,27.29,42.44,40.93,63.66q13.76,21.4,27.57,42.75c2.79,4.32,5.47,8.7,8.42,12.9a15.74,15.74,0,0,1,2.86,10c-.19,6-1.29,11.61-4.31,16.8a33.19,33.19,0,0,1-24.5,16.8,48,48,0,0,1-7.67.56Q589.33,715.41,545.23,715.43Z" fill="#fbfbfb"/><path d="M619.45,520.77v-3.41a10.4,10.4,0,0,1,1.34-4.86,6.24,6.24,0,0,1,6.29-3.49,6,6,0,0,1,5.63,3.83,8.57,8.57,0,0,1,.5,1.17,24.8,24.8,0,0,1-.09,13.85c-1.45,4.53-4.16,5.33-8.72,4.54a4.64,4.64,0,0,1-2.74-1.91,10,10,0,0,1-2.22-5.88c-.06-1.27,0-2.55,0-3.83Z" fill="#fbeed9"/><path d="M619.45,559.43c0-1.28,0-2.55,0-3.83a10,10,0,0,1,1.27-4.47,6.72,6.72,0,0,1,12.14.46,8.18,8.18,0,0,1,.55,1.6,28.2,28.2,0,0,1-.08,12.63,9,9,0,0,1-.6,1.59,6,6,0,0,1-5.66,3.75c-2.85.07-5-.93-6.28-3.46a10.48,10.48,0,0,1-1.34-4.88v-3.4Z" fill="#fbefda"/><path d="M653,597.77c0-1.13,0-2.27,0-3.41a10.94,10.94,0,0,1,1.06-4.53,6.21,6.21,0,0,1,6.51-3.8,6.11,6.11,0,0,1,5.82,4.22,12.34,12.34,0,0,1,.92,3.69c.15,2.55.1,5.12,0,7.67a12,12,0,0,1-.6,2.91c-1.54,5.13-4.65,5.59-8.9,4.92a4.42,4.42,0,0,1-2.46-1.58A9.35,9.35,0,0,1,653,602c-.11-1.41,0-2.84,0-4.26Z" fill="#fbeed7"/><path d="M653,520.76c0-2.27-.17-4.55.57-6.76,1.21-3.63,3.7-5.29,7.43-5a6,6,0,0,1,4.86,3,4.87,4.87,0,0,1,.55,1.15,25,25,0,0,1-.1,15.48,5.63,5.63,0,0,1-5.48,4c-3,.14-5.28-.78-6.66-3.56a11.55,11.55,0,0,1-1.17-4.5C652.92,523.32,653,522,653,520.76Z" fill="#fbeed8"/><path d="M667.46,443.92a20.64,20.64,0,0,1-.92,7.15c-1.18,3.1-2.85,4.39-6,4.5-3.55.12-5.36-1-6.68-4.1a6.64,6.64,0,0,1-.41-1.21,32.07,32.07,0,0,1,.06-13.09,6.2,6.2,0,0,1,5.94-5.22,6.49,6.49,0,0,1,7,4.42,10.38,10.38,0,0,1,.69,2.45C667.33,440.51,667.36,442.22,667.46,443.92Z" fill="#fbeed8"/><path d="M700.81,443.37c-.08,2.5.05,4.64-.55,6.74-1.59,5.59-5.18,6-9.17,5.17a5.17,5.17,0,0,1-3.74-3.81,24.73,24.73,0,0,1-.07-15.15A5.86,5.86,0,0,1,692.6,432a6.5,6.5,0,0,1,6.61,3,9.44,9.44,0,0,1,1.41,4.44C700.74,440.88,700.77,442.31,700.81,443.37Z" fill="#fbf0dd"/><path d="M700.82,559.25a24,24,0,0,1-.74,7.16c-1,3-3,4.56-5.85,4.74-3.86.23-6.21-1.36-7.21-5.15a25.61,25.61,0,0,1,0-13.46,6.2,6.2,0,0,1,6.5-5,6.61,6.61,0,0,1,6.59,5A24.28,24.28,0,0,1,700.82,559.25Z" fill="#fbedd6"/><path d="M734.05,597.92a25.75,25.75,0,0,1-.46,6.37c-.91,3.61-3,5.38-6.61,5.38s-5.77-1.58-6.68-5.28a26.85,26.85,0,0,1,0-13.09c.91-3.68,3.08-5.28,6.72-5.25,3.44,0,5.64,1.91,6.57,5.51A25.67,25.67,0,0,1,734.05,597.92Z" fill="#fbecd2"/><path d="M734,482a28.88,28.88,0,0,1-.42,6.6c-1.36,5.85-5.47,6.16-9.39,5.18a5.28,5.28,0,0,1-3.63-3.91,26.13,26.13,0,0,1,0-15.12c.88-2.85,3.52-4.37,6.65-4.25a6.38,6.38,0,0,1,6,4.56A20.69,20.69,0,0,1,734,482Z" fill="#fbeed6"/><path d="M734,520.54a28.76,28.76,0,0,1-.43,6.58c-1.39,5.76-5.37,6.08-9.44,5.12a5.11,5.11,0,0,1-2.08-1.41,6.43,6.43,0,0,1-1.78-3.33,28.34,28.34,0,0,1,0-13.08c.88-3.67,3.11-5.41,6.63-5.42s5.7,1.85,6.65,5.42A25,25,0,0,1,734,520.54Z" fill="#fbedd5"/><path d="M734,443.74a27,27,0,0,1-.46,6.54c-1.43,5.69-5.79,6-9.57,4.86a5.48,5.48,0,0,1-3.48-4.07,26.84,26.84,0,0,1,.07-14.71c.86-2.91,3.4-4.48,6.54-4.44a6.32,6.32,0,0,1,6.26,4.81A23,23,0,0,1,734,443.74Z" fill="#fbeed8"/><path d="M695.74,597.9v8.94a2.92,2.92,0,0,1-.42,2,1.27,1.27,0,0,1-.68.41,1,1,0,0,1-1.06-.48,4.62,4.62,0,0,1-.33-2.49V594.39c0-1.13,0-2.27-.09-3.4a1.06,1.06,0,0,0-1.43-1.07c-1.1.24-2.17.58-3.27.82a.82.82,0,0,1-1-.6.91.91,0,0,1,.44-1.11,9.37,9.37,0,0,1,1.9-.95c5.82-2,6-3.41,5.91,3.83,0,2,0,4,0,6Z" fill="#fbe5bf"/><path d="M695.75,520.91v7.66a24.19,24.19,0,0,1-.13,2.55,1.16,1.16,0,0,1-1.06,1.11,1,1,0,0,1-1.17-.88.19.19,0,0,0,0-.08c-.11-1.27-.13-2.55-.14-3.83,0-4.4,0-8.8-.06-13.2,0-1.33-.59-1.66-2-1.28-.27.07-.51.24-.79.31-2,.57-2.95.48-2.95-.27,0-1.35,1.21-1.45,2-1.8a48.35,48.35,0,0,1,4.81-1.73,1,1,0,0,1,1.22.63.47.47,0,0,1,0,.17,10.67,10.67,0,0,1,.17,2.11c0,2.84,0,5.68,0,8.51Z" fill="#fbe5bf"/><path d="M662.29,559.26c0,3.12,0,6.24,0,9.37a5.34,5.34,0,0,1-.35,1.62c-.07.2-.4.37-.64.44a1,1,0,0,1-1.09-.4,4.06,4.06,0,0,1-.37-2.47c0-4.81,0-9.65,0-14.48,0-2-.42-2.28-2.24-1.79a21.13,21.13,0,0,1-2.46.63,1.19,1.19,0,0,1-1-.47,1.17,1.17,0,0,1,.34-1.09,23.28,23.28,0,0,1,3.1-1.39c4.88-1.85,4.83-2.15,4.8,3.22v6.81Z" fill="#fbe9ca"/><path d="M692.74,474.42c-1.59-.52-2.88,1-4.46.74-.43-.08-.83-.22-.81-.74a2.21,2.21,0,0,1,.26-.76.66.66,0,0,1,.33-.26c2.11-.81,4.21-1.64,6.34-2.38a.91.91,0,0,1,1.2.85,12.45,12.45,0,0,1,.12,2.11v16.59a9.62,9.62,0,0,1-.31,2.5,1.2,1.2,0,0,1-.95.64,1.21,1.21,0,0,1-.93-.66,15.08,15.08,0,0,1-.29-2.93c0-4.39,0-8.79,0-13.18A3.93,3.93,0,0,0,692.74,474.42Z" fill="#fbe5c0"/><path d="M662.31,482.51v7.67a23.87,23.87,0,0,1-.14,2.54,1.05,1.05,0,0,1-1.14,1h0a1.16,1.16,0,0,1-1.08-1.11c-.08-1-.11-2-.11-3v-11.5a29.3,29.3,0,0,0-.12-3,.94.94,0,0,0-1-.87.78.78,0,0,0-.22,0c-1,.22-1.9.57-2.86.84a1.52,1.52,0,0,1-1.57-.34c-.3-.29.27-1.28,1-1.57,1.85-.74,3.69-1.48,5.54-2.15,1-.37,1.65.11,1.66,1.22,0,3.41,0,6.82,0,10.22Z" fill="#fbe8c8"/><path d="M628.61,432c.12,1.47.25,2.32.25,3.16q0,8.54,0,17.07a13.15,13.15,0,0,1-.31,2.5c0,.16-.44.32-.68.34a1,1,0,0,1-.77-.24,3.63,3.63,0,0,1-.56-2.43v-12c0-1.14,0-2.28-.07-3.41s-.66-1.48-1.7-1.2c-.68.18-1.34.47-2,.66a2,2,0,0,1-2-.29c-.37-.33.41-1.31,1.42-1.72C624.11,433.72,626.08,433,628.61,432Z" fill="#fbe8c7"/><path d="M628.79,482.42v10.24a.89.89,0,0,1-.78,1,1.06,1.06,0,0,1-.31,0,1.31,1.31,0,0,1-.87-.78,28.47,28.47,0,0,1-.29-3.8c0-4.42,0-8.83-.06-13.24,0-1.36-.66-1.82-1.91-1.42-1.08.34-2.09,1-3.28.71a.91.91,0,0,1-.56-.51.89.89,0,0,1,.16-.77,21.62,21.62,0,0,1,7-2.82c.39-.11.79.31.83.77.07,1,.11,2,.12,3v7.68Z" fill="#fbe8c7"/><path d="M728.51,548a3.56,3.56,0,0,1,.58,2.63q0,8.51,0,17a13.81,13.81,0,0,1-.07,1.7c-.07.54-.15,1.14-.87,1.24s-.95-.5-1-1c-.09-1.13-.11-2.27-.11-3.4V554.7a21.57,21.57,0,0,0-.1-2.54,1.19,1.19,0,0,0-1.34-1l-.22,0c-.95.27-1.87.65-2.82.91a2.6,2.6,0,0,1-1.24,0c-.19,0-.33-.37-.44-.59a.53.53,0,0,1,0-.41.7.7,0,0,1,.26-.33A23.83,23.83,0,0,1,728.51,548Z" fill="#fbefdc"/><path d="M545.32,701.92H456.25a24.92,24.92,0,0,1-6.37-.58c-8.42-2.15-13.6-7.39-15.53-15.85-.16-.7-.24-1.41-.4-2.11a6.49,6.49,0,0,1,1.07-5.24c5-7.65,9.87-15.35,14.79-23L477.54,612q10.75-16.73,21.54-33.44c4.79-7.42,9.52-14.87,14.37-22.25a13.29,13.29,0,0,0,2.21-7.64q-.07-67.42,0-134.85a21.88,21.88,0,0,0-.06-2.56,6.44,6.44,0,0,0-5.34-5.85,9.25,9.25,0,0,1-3.63-1.15c-1.77-1.2-2.93-2.75-2.69-5a6,6,0,0,1,4.59-4.55,13.6,13.6,0,0,1,2.55-.15h68.53a7.54,7.54,0,0,1,4.85,1.27c2.59,1.94,2.45,6.92-.47,8.43a11.86,11.86,0,0,1-3.64,1.13,6.33,6.33,0,0,0-5.57,6.07c-.12,1.27-.08,2.56-.08,3.84V550.11a8.69,8.69,0,0,0,1.44,4.84q9.58,14.67,19.07,29.43c2.85,4.44,5.64,8.92,8.5,13.36q10.73,16.71,21.49,33.42l28.47,44.24a9.36,9.36,0,0,0,.7,1.07c2.59,3.06,2.49,6.6,1.53,10.13a20.38,20.38,0,0,1-19.38,15.33c-1.14,0-2.28,0-3.43,0Z" fill="#f6b21a"/><path d="M631.53,521c0,2.42.22,4.86-.95,7.12a4.11,4.11,0,0,1-4.06,2.55,3.79,3.79,0,0,1-3-1.48,6.87,6.87,0,0,1-1.65-4.3c-.06-2.7,0-5.41,0-8.14a7.1,7.1,0,0,1,1.35-4,4.17,4.17,0,0,1,7.12.31,8.21,8.21,0,0,1,1.17,4.07C631.54,518.46,631.53,519.74,631.53,521Z" fill="#f6b21b"/><path d="M621.91,559c0-1.29,0-2.57,0-3.85a7.08,7.08,0,0,1,1.16-3.62,4.22,4.22,0,0,1,5.77-1.48,4.17,4.17,0,0,1,1.59,1.69,8,8,0,0,1,1.08,3.66c0,2.56,0,5.13,0,7.69a8.15,8.15,0,0,1-1.23,4.07,4.13,4.13,0,0,1-7.09.14,7.4,7.4,0,0,1-1.31-4V559Z" fill="#f6b21b"/><path d="M664.81,597.92c0,1.56.06,3.12,0,4.67a6.75,6.75,0,0,1-1.6,3.86c-1.27,1.59-4.76,2-6.33-.24a8,8,0,0,1-1.59-4.75v-7.22a7.8,7.8,0,0,1,.92-3.67,4.1,4.1,0,0,1,4-2.53,4.32,4.32,0,0,1,3.93,2.77,8.49,8.49,0,0,1,.74,3.71c0,1.13,0,2.27,0,3.4Z" fill="#f6b21b"/><path d="M664.84,521.08c.07,2.12.28,4.26-.47,6.31-.83,2.28-2.22,3.28-4.39,3.3a3.81,3.81,0,0,1-3.25-1.69,7.43,7.43,0,0,1-1.45-4.36c0-2.55,0-5.1,0-7.65a7.64,7.64,0,0,1,1.21-4,4.28,4.28,0,0,1,7.16-.14,6.5,6.5,0,0,1,1.19,3.59C664.87,518,664.84,519.52,664.84,521.08Z" fill="#f6b21b"/><path d="M655.27,443.38V440a8.29,8.29,0,0,1,.8-3.28A4.19,4.19,0,0,1,660,434a4.29,4.29,0,0,1,4.07,2.56,6.68,6.68,0,0,1,.73,2.84c.1,3,.07,5.94,0,8.91a6.28,6.28,0,0,1-1.21,3.57,4.2,4.2,0,0,1-5.83,1.16,4.3,4.3,0,0,1-1.29-1.36,7.82,7.82,0,0,1-1.21-4C655.26,446.22,655.27,444.8,655.27,443.38Z" fill="#f6b21b"/><path d="M688.78,443.82c0-1.55-.06-3.11,0-4.66a6.9,6.9,0,0,1,.61-2.45,4.45,4.45,0,0,1,4.39-2.74,4.31,4.31,0,0,1,3.8,3,7.24,7.24,0,0,1,.54,2,40.69,40.69,0,0,1,0,9.74,6.12,6.12,0,0,1-1.72,3.79,4,4,0,0,1-5.72.12h0a5.69,5.69,0,0,1-1.89-3.7c0-.42-.1-.84-.1-1.27v-3.82Z" fill="#f6b31c"/><path d="M688.62,559c.07-1.56.12-3.13.23-4.69a5.42,5.42,0,0,1,2.22-4,4.12,4.12,0,0,1,5.11.19,6.07,6.07,0,0,1,2,4.14,46,46,0,0,1,0,9.38,6.59,6.59,0,0,1-1.6,3.88,4.07,4.07,0,0,1-5.73.31,5.77,5.77,0,0,1-2-4.11c-.08-1.71,0-3.42,0-5.13Z" fill="#f6b31c"/><path d="M731.93,598c-.13,1.79-.15,3.65-.42,5.46a5,5,0,0,1-3.66,4.23,4.27,4.27,0,0,1-4.68-2.15,6,6,0,0,1-.89-2.35,44.74,44.74,0,0,1,0-10.6,4.7,4.7,0,0,1,3.52-4.33c2.68-.74,5.26,1.11,5.76,4.18C731.82,594.2,731.8,596.05,731.93,598Z" fill="#f6b21b"/><path d="M731.9,482.26c-.09,1.7-.16,3.26-.24,4.8a5.94,5.94,0,0,1-1.41,3.5,4.19,4.19,0,0,1-5.88.79,4.69,4.69,0,0,1-.47-.42,5.78,5.78,0,0,1-1.74-3.78,59.26,59.26,0,0,1,0-9.79,6.07,6.07,0,0,1,.12-.84,4.63,4.63,0,0,1,9.18-.07,7.65,7.65,0,0,1,.18,1.26C731.75,479.28,731.83,480.84,731.9,482.26Z" fill="#f6b31b"/><path d="M731.89,520.84c-.07,1.42-.15,3-.21,4.54a6.23,6.23,0,0,1-1.27,3.55,4.32,4.32,0,0,1-6.95.06,5.58,5.58,0,0,1-1.31-3.52c0-3.12,0-6.24,0-9.36a2,2,0,0,1,.05-.43c.45-2.83,2.25-4.63,4.66-4.69s4.26,1.78,4.72,4.61a10.71,10.71,0,0,1,.13,1.27C731.77,518.15,731.82,519.42,731.89,520.84Z" fill="#f6b31c"/><path d="M731.93,443.28c-.1,2.05-.17,3.61-.25,5.18a6.14,6.14,0,0,1-1.6,3.85,4.19,4.19,0,0,1-5.93.34l-.14-.13a5.76,5.76,0,0,1-1.83-3.75,57.19,57.19,0,0,1,.05-10.22,3.91,3.91,0,0,1,.15-.83A4.94,4.94,0,0,1,727,434a4.66,4.66,0,0,1,4.44,3.85C731.78,439.78,731.8,441.78,731.93,443.28Z" fill="#f6b31b"/><path d="M577.54,641.24c-3.63-3.28-4.49-7.66-4.47-12.36,0-1.85,0-3.7-.05-5.55,0-1.14,0-2.28-.13-3.42a8.19,8.19,0,0,0-1.45-4c-.93-1.31-2.41-1.36-3.86-1.36-1.11,0-1.48-.7-1.48-1.66,0-1.71-.05-3.42,0-5.13,0-1.42.45-1.89,1.75-1.87a32,32,0,0,1,5.54.37,9,9,0,0,1,7.3,7,33.14,33.14,0,0,1,1.11,8.87c0,2-.08,4,0,6a37.74,37.74,0,0,0,.7,4.63,5.61,5.61,0,0,0,4.32,4.81c1.75.37,1.92,1.38,1.91,2.75a9.11,9.11,0,0,0,0,1.28c.34,2.29-.33,3.7-2.85,4.24-1.74.37-2.72,1.91-3.35,3.63a16.8,16.8,0,0,0-.91,5.45q-.07,3.65,0,7.27a33.23,33.23,0,0,1-.9,7.63,9.12,9.12,0,0,1-6.73,7.07,17.68,17.68,0,0,1-6.8.35,1.11,1.11,0,0,1-1.05-1.11c-.06-1.56-.11-3.14-.09-4.7,0-2.22.05-2.37,2.29-2.68a4.27,4.27,0,0,0,3.83-3.45,21.84,21.84,0,0,0,.82-5.91l.06-7.28c0-3.85,1-7.32,4.06-10C577.31,642,577.35,641.66,577.54,641.24Z" fill="#fbfafa"/><path d="M512.37,641.53c3.77,2.66,4.69,6.23,5,10,.2,2.42.14,4.85.18,7.27a25.65,25.65,0,0,0,.66,5.92c.57,2.32,1.7,3.78,4.29,4,1.81.17,1.91.46,2,2.07,0,.43,0,.85,0,1.28-.08,5.64.74,5.42-5.28,5.18-6.72-.28-9.09-4.29-10-9.24a29.33,29.33,0,0,1-.29-4.69c-.05-2.57,0-5.14-.05-7.71a22.46,22.46,0,0,0-.25-3.84c-.55-3.11-1.77-5.78-5.31-6.45a1.65,1.65,0,0,1-1.48-1.76,18.93,18.93,0,0,0,0-2.13c-.32-2.29.34-3.77,2.82-4.32a4.5,4.5,0,0,0,3.09-3.3,17.41,17.41,0,0,0,1-5.44c0-3.57.14-7.13.19-10.69a16,16,0,0,1,1.3-5.81,9.06,9.06,0,0,1,6.57-5.6,13.51,13.51,0,0,1,2.54-.35c5.8-.34,5.14-.3,5.2,4.81V612c-.08,2.19-.07,2.34-2.38,2.49a4,4,0,0,0-3.93,3.28,14.92,14.92,0,0,0-.66,4.2c0,2.59,0,5.14-.19,7.7C517.1,634.07,516.46,638.3,512.37,641.53Z" fill="#fbfafa"/></svg>